<svg width="32" height="32" viewBox="0 0 32 32" fill="none" xmlns="http://www.w3.org/2000/svg">
  <!-- Background -->
  <rect width="32" height="32" rx="6" fill="#1a1a1a"/>
  
  <!-- Gold accent -->
  <path d="M16 8L20 12L16 16L12 12L16 8Z" fill="#d4af37"/>
  
  <!-- Hand silhouette -->
  <path d="M12 14C12 14 11 15 11 16.5C11 18 12 19 13 19.5C13.5 19.75 14.5 20 16 20C17.5 20 18.5 19.75 19 19.5C20 19 21 18 21 16.5C21 15 20 14 20 14L19 15L18 14L17 15L16 14L15 15L14 14L13 15L12 14Z" fill="#fafaf9"/>
  
  <!-- Gold line accent -->
  <line x1="8" y1="24" x2="24" y2="24" stroke="#d4af37" stroke-width="2" stroke-linecap="round"/>
</svg>
